<svg width="49" height="35" viewBox="0 0 49 35" fill="none" xmlns="http://www.w3.org/2000/svg">
<path d="M46.984 0.000844904C46.4753 0.0158887 45.9925 0.226898 45.6378 0.589168L15.693 30.309L3.37087 18.0794C3.19044 17.8929 2.97433 17.744 2.73519 17.6414C2.49606 17.5389 2.2387 17.4847 1.9782 17.482C1.71769 17.4794 1.45928 17.5284 1.21809 17.6261C0.976897 17.7239 0.757779 17.8684 0.573565 18.0512C0.389352 18.234 0.243746 18.4515 0.145276 18.6909C0.0468061 18.9303 -0.00254904 19.1867 0.000101353 19.4453C0.00275174 19.7038 0.0573544 19.9592 0.160711 20.1966C0.264068 20.4339 0.414102 20.6484 0.602025 20.8275L14.3086 34.431C14.6758 34.7953 15.1738 35 15.693 35C16.2122 35 16.7102 34.7953 17.0774 34.431L48.4067 3.33721C48.6896 3.06424 48.8829 2.7128 48.9611 2.32894C49.0394 1.94509 48.9989 1.54673 48.8451 1.18607C48.6914 0.825411 48.4314 0.519274 48.0993 0.30778C47.7672 0.0962853 47.3784 -0.0106994 46.984 0.000844904Z" fill="white"/>
</svg>
